<?xml version="1.0" encoding="utf-8"?><svg xmlns="http://www.w3.org/2000/svg" xmlns:xlink="http://www.w3.org/1999/xlink"><symbol fill="currentColor" class="abi abi-calendar2-week" viewBox="0 0 16 16" id="calendar" xmlns="http://www.w3.org/2000/svg"><path d="M3.5 0a.5.5 0 01.5.5V1h8V.5a.5.5 0 011 0V1h1a2 2 0 012 2v11a2 2 0 01-2 2H2a2 2 0 01-2-2V3a2 2 0 012-2h1V.5a.5.5 0 01.5-.5zM2 2a1 1 0 00-1 1v11a1 1 0 001 1h12a1 1 0 001-1V3a1 1 0 00-1-1H2z"/><path d="M2.5 4a.5.5 0 01.5-.5h10a.5.5 0 01.5.5v1a.5.5 0 01-.5.5H3a.5.5 0 01-.5-.5V4zM11 7.5a.5.5 0 01.5-.5h1a.5.5 0 01.5.5v1a.5.5 0 01-.5.5h-1a.5.5 0 01-.5-.5v-1zm-3 0a.5.5 0 01.5-.5h1a.5.5 0 01.5.5v1a.5.5 0 01-.5.5h-1a.5.5 0 01-.5-.5v-1zm-5 3a.5.5 0 01.5-.5h1a.5.5 0 01.5.5v1a.5.5 0 01-.5.5h-1a.5.5 0 01-.5-.5v-1zm3 0a.5.5 0 01.5-.5h1a.5.5 0 01.5.5v1a.5.5 0 01-.5.5h-1a.5.5 0 01-.5-.5v-1z"/></symbol><symbol fill="currentColor" class="bbi bbi-chat-square-text" viewBox="0 0 16 16" id="comment" xmlns="http://www.w3.org/2000/svg"><path d="M14 1a1 1 0 011 1v8a1 1 0 01-1 1h-2.5a2 2 0 00-1.6.8L8 14.333 6.1 11.8a2 2 0 00-1.6-.8H2a1 1 0 01-1-1V2a1 1 0 011-1h12zM2 0a2 2 0 00-2 2v8a2 2 0 002 2h2.5a1 1 0 01.8.4l1.9 2.533a1 1 0 001.6 0l1.9-2.533a1 1 0 01.8-.4H14a2 2 0 002-2V2a2 2 0 00-2-2H2z"/><path d="M3 3.5a.5.5 0 01.5-.5h9a.5.5 0 010 1h-9a.5.5 0 01-.5-.5zM3 6a.5.5 0 01.5-.5h9a.5.5 0 010 1h-9A.5.5 0 013 6zm0 2.5a.5.5 0 01.5-.5h5a.5.5 0 010 1h-5a.5.5 0 01-.5-.5z"/></symbol><symbol fill="currentColor" class="cbi cbi-envelope" viewBox="0 0 16 16" id="contact" xmlns="http://www.w3.org/2000/svg"><path d="M0 4a2 2 0 012-2h12a2 2 0 012 2v8a2 2 0 01-2 2H2a2 2 0 01-2-2V4zm2-1a1 1 0 00-1 1v.217l7 4.2 7-4.2V4a1 1 0 00-1-1H2zm13 2.383l-4.708 2.825L15 11.105V5.383zm-.034 6.876l-5.64-3.471L8 9.583l-1.326-.795-5.64 3.47A1 1 0 002 13h12a1 1 0 00.966-.741zM1 11.105l4.708-2.897L1 5.383v5.722z"/></symbol><symbol fill="currentColor" class="dbi dbi-eye" viewBox="0 0 16 16" id="eye" xmlns="http://www.w3.org/2000/svg"><path d="M16 8s-3-5.5-8-5.5S0 8 0 8s3 5.5 8 5.5S16 8 16 8zM1.173 8a13.133 13.133 0 011.66-2.043C4.12 4.668 5.88 3.5 8 3.5c2.12 0 3.879 1.168 5.168 2.457A13.133 13.133 0 0114.828 8c-.058.087-.122.183-.195.288-.335.48-.83 1.12-1.465 1.755C11.879 11.332 10.119 12.5 8 12.5c-2.12 0-3.879-1.168-5.168-2.457A13.134 13.134 0 011.172 8z"/><path d="M8 5.5a2.5 2.5 0 100 5 2.5 2.5 0 000-5zM4.5 8a3.5 3.5 0 117 0 3.5 3.5 0 01-7 0z"/></symbol><symbol fill="currentColor" class="ebi ebi-facebook" viewBox="0 0 16 16" id="facebook" xmlns="http://www.w3.org/2000/svg"><path d="M16 8.049c0-4.446-3.582-8.05-8-8.05C3.58 0-.002 3.603-.002 8.05c0 4.017 2.926 7.347 6.75 7.951v-5.625h-2.03V8.05H6.75V6.275c0-2.017 1.195-3.131 3.022-3.131.876 0 1.791.157 1.791.157v1.98h-1.009c-.993 0-1.303.621-1.303 1.258v1.51h2.218l-.354 2.326H9.25V16c3.824-.604 6.75-3.934 6.75-7.951z"/></symbol><symbol fill="currentColor" class="fbi fbi-github" viewBox="0 0 16 16" id="github" xmlns="http://www.w3.org/2000/svg"><path d="M8 0C3.58 0 0 3.58 0 8c0 3.54 2.29 6.53 5.47 7.59.4.07.55-.17.55-.38 0-.19-.01-.82-.01-1.49-2.01.37-2.53-.49-2.69-.94-.09-.23-.48-.94-.82-1.13-.28-.15-.68-.52-.01-.53.63-.01 1.08.58 1.23.82.72 1.21 1.87.87 2.33.66.07-.52.28-.87.51-1.07-1.78-.2-3.64-.89-3.64-3.95 0-.87.31-1.59.82-2.15-.08-.2-.36-1.02.08-2.12 0 0 .67-.21 2.2.82.64-.18 1.32-.27 2-.27.68 0 1.36.09 2 .27 1.53-1.04 2.2-.82 2.2-.82.44 1.1.16 1.92.08 2.12.51.56.82 1.27.82 2.15 0 3.07-1.87 3.75-3.65 3.95.29.25.54.73.54 1.48 0 1.07-.01 1.93-.01 2.2 0 .21.15.46.55.38A8.012 8.012 0 0016 8c0-4.42-3.58-8-8-8z"/></symbol><symbol fill="currentColor" class="gbi gbi-list" viewBox="0 0 16 16" id="hamburger" xmlns="http://www.w3.org/2000/svg"><path fill-rule="evenodd" d="M2.5 12a.5.5 0 01.5-.5h10a.5.5 0 010 1H3a.5.5 0 01-.5-.5zm0-4a.5.5 0 01.5-.5h10a.5.5 0 010 1H3a.5.5 0 01-.5-.5zm0-4a.5.5 0 01.5-.5h10a.5.5 0 010 1H3a.5.5 0 01-.5-.5z"/></symbol><symbol fill="currentColor" class="hbi hbi-house-door" viewBox="0 0 16 16" id="home" xmlns="http://www.w3.org/2000/svg"><path d="M8.354 1.146a.5.5 0 00-.708 0l-6 6A.5.5 0 001.5 7.5v7a.5.5 0 00.5.5h4.5a.5.5 0 00.5-.5v-4h2v4a.5.5 0 00.5.5H14a.5.5 0 00.5-.5v-7a.5.5 0 00-.146-.354L13 5.793V2.5a.5.5 0 00-.5-.5h-1a.5.5 0 00-.5.5v1.293L8.354 1.146zM2.5 14V7.707l5.5-5.5 5.5 5.5V14H10v-4a.5.5 0 00-.5-.5h-3a.5.5 0 00-.5.5v4H2.5z"/></symbol><symbol fill="currentColor" class="ibi ibi-linkedin" viewBox="0 0 16 16" id="linkedin" xmlns="http://www.w3.org/2000/svg"><path d="M0 1.146C0 .513.526 0 1.175 0h13.65C15.474 0 16 .513 16 1.146v13.708c0 .633-.526 1.146-1.175 1.146H1.175C.526 16 0 15.487 0 14.854V1.146zm4.943 12.248V6.169H2.542v7.225h2.401zm-1.2-8.212c.837 0 1.358-.554 1.358-1.248-.015-.709-.52-1.248-1.342-1.248-.822 0-1.359.54-1.359 1.248 0 .694.521 1.248 1.327 1.248h.016zm4.908 8.212V9.359c0-.216.016-.432.08-.586.173-.431.568-.878 1.232-.878.869 0 1.216.662 1.216 1.634v3.865h2.401V9.25c0-2.22-1.184-3.252-2.764-3.252-1.274 0-1.845.7-2.165 1.193v.025h-.016a5.54 5.54 0 01.016-.025V6.169h-2.4c.03.678 0 7.225 0 7.225h2.4z"/></symbol><symbol fill="currentColor" class="jbi jbi-person" viewBox="0 0 16 16" id="person" xmlns="http://www.w3.org/2000/svg"><path d="M8 8a3 3 0 100-6 3 3 0 000 6zm2-3a2 2 0 11-4 0 2 2 0 014 0zm4 8c0 1-1 1-1 1H3s-1 0-1-1 1-4 6-4 6 3 6 4zm-1-.004c-.001-.246-.154-.986-.832-1.664C11.516 10.68 10.289 10 8 10c-2.29 0-3.516.68-4.168 1.332-.678.678-.83 1.418-.832 1.664h10z"/></symbol><symbol fill="currentColor" class="kbi kbi-search" viewBox="0 0 16 16" id="search" xmlns="http://www.w3.org/2000/svg"><path d="M11.742 10.344a6.5 6.5 0 10-1.397 1.398h-.001c.03.04.062.078.098.115l3.85 3.85a1 1 0 001.415-1.414l-3.85-3.85a1.007 1.007 0 00-.115-.1zM12 6.5a5.5 5.5 0 11-11 0 5.5 5.5 0 0111 0z"/></symbol><symbol fill="currentColor" class="lbi lbi-share" viewBox="0 0 16 16" id="share" xmlns="http://www.w3.org/2000/svg"><path d="M13.5 1a1.5 1.5 0 100 3 1.5 1.5 0 000-3zM11 2.5a2.5 2.5 0 11.603 1.628l-6.718 3.12a2.499 2.499 0 010 1.504l6.718 3.12a2.5 2.5 0 11-.488.876l-6.718-3.12a2.5 2.5 0 110-3.256l6.718-3.12A2.5 2.5 0 0111 2.5zm-8.5 4a1.5 1.5 0 100 3 1.5 1.5 0 000-3zm11 5.5a1.5 1.5 0 100 3 1.5 1.5 0 000-3z"/></symbol><symbol fill="currentColor" class="mbi mbi-shield-shaded" viewBox="0 0 16 16" id="shield" xmlns="http://www.w3.org/2000/svg"><path fill-rule="evenodd" d="M8 14.933a.615.615 0 00.1-.025c.076-.023.174-.061.294-.118.24-.113.547-.29.893-.533a10.726 10.726 0 002.287-2.233c1.527-1.997 2.807-5.031 2.253-9.188a.48.48 0 00-.328-.39c-.651-.213-1.75-.56-2.837-.855C9.552 1.29 8.531 1.067 8 1.067v13.866zM5.072.56C6.157.265 7.31 0 8 0s1.843.265 2.928.56c1.11.3 2.229.655 2.887.87a1.54 1.54 0 011.044 1.262c.596 4.477-.787 7.795-2.465 9.99a11.775 11.775 0 01-2.517 2.453 7.159 7.159 0 01-1.048.625c-.28.132-.581.24-.829.24s-.548-.108-.829-.24a7.158 7.158 0 01-1.048-.625 11.777 11.777 0 01-2.517-2.453C1.928 10.487.545 7.169 1.141 2.692A1.54 1.54 0 012.185 1.43 62.456 62.456 0 015.072.56z"/></symbol><symbol fill="currentColor" class="nbi nbi-tags" viewBox="0 0 16 16" id="tag" xmlns="http://www.w3.org/2000/svg"><path d="M3 2v4.586l7 7L14.586 9l-7-7H3zM2 2a1 1 0 011-1h4.586a1 1 0 01.707.293l7 7a1 1 0 010 1.414l-4.586 4.586a1 1 0 01-1.414 0l-7-7A1 1 0 012 6.586V2z"/><path d="M5.5 5a.5.5 0 110-1 .5.5 0 010 1zm0 1a1.5 1.5 0 100-3 1.5 1.5 0 000 3zM1 7.086a1 1 0 00.293.707L8.75 15.25l-.043.043a1 1 0 01-1.414 0l-7-7A1 1 0 010 7.586V3a1 1 0 011-1v5.086z"/></symbol><symbol fill="currentColor" class="obi obi-twitter" viewBox="0 0 16 16" id="twitter" xmlns="http://www.w3.org/2000/svg"><path d="M5.026 15c6.038 0 9.341-5.003 9.341-9.334 0-.14 0-.282-.006-.422A6.685 6.685 0 0016 3.542a6.658 6.658 0 01-1.889.518 3.301 3.301 0 001.447-1.817 6.533 6.533 0 01-2.087.793A3.286 3.286 0 007.875 6.03a9.325 9.325 0 01-6.767-3.429 3.289 3.289 0 001.018 4.382A3.323 3.323 0 01.64 6.575v.045a3.288 3.288 0 002.632 3.218 3.203 3.203 0 01-.865.115 3.23 3.23 0 01-.614-.057 3.283 3.283 0 003.067 2.277A6.588 6.588 0 01.78 13.58a6.32 6.32 0 01-.78-.045A9.344 9.344 0 005.026 15z"/></symbol></svg>