<?xml version="1.0" encoding="utf-8"?><svg width="48" height="48" viewBox="0 0 48 48" xmlns="http://www.w3.org/2000/svg" xmlns:xlink="http://www.w3.org/1999/xlink"><svg fill="rgba(51, 51, 51, 0.5)" class="abi abi-calendar2-week" viewBox="0 0 16 16" width="16" height="16" id="calendar" xmlns="http://www.w3.org/2000/svg"><path d="M3.5 0a.5.5 0 01.5.5V1h8V.5a.5.5 0 011 0V1h1a2 2 0 012 2v11a2 2 0 01-2 2H2a2 2 0 01-2-2V3a2 2 0 012-2h1V.5a.5.5 0 01.5-.5zM2 2a1 1 0 00-1 1v11a1 1 0 001 1h12a1 1 0 001-1V3a1 1 0 00-1-1H2z"/><path d="M2.5 4a.5.5 0 01.5-.5h10a.5.5 0 01.5.5v1a.5.5 0 01-.5.5H3a.5.5 0 01-.5-.5V4zM11 7.5a.5.5 0 01.5-.5h1a.5.5 0 01.5.5v1a.5.5 0 01-.5.5h-1a.5.5 0 01-.5-.5v-1zm-3 0a.5.5 0 01.5-.5h1a.5.5 0 01.5.5v1a.5.5 0 01-.5.5h-1a.5.5 0 01-.5-.5v-1zm-5 3a.5.5 0 01.5-.5h1a.5.5 0 01.5.5v1a.5.5 0 01-.5.5h-1a.5.5 0 01-.5-.5v-1zm3 0a.5.5 0 01.5-.5h1a.5.5 0 01.5.5v1a.5.5 0 01-.5.5h-1a.5.5 0 01-.5-.5v-1z"/></svg><svg fill="rgba(51, 51, 51, 0.5)" class="bbi bbi-chat-square-text" viewBox="0 0 16 16" width="16" height="16" id="comment" x="16" xmlns="http://www.w3.org/2000/svg"><path d="M14 1a1 1 0 011 1v8a1 1 0 01-1 1h-2.5a2 2 0 00-1.6.8L8 14.333 6.1 11.8a2 2 0 00-1.6-.8H2a1 1 0 01-1-1V2a1 1 0 011-1h12zM2 0a2 2 0 00-2 2v8a2 2 0 002 2h2.5a1 1 0 01.8.4l1.9 2.533a1 1 0 001.6 0l1.9-2.533a1 1 0 01.8-.4H14a2 2 0 002-2V2a2 2 0 00-2-2H2z"/><path d="M3 3.5a.5.5 0 01.5-.5h9a.5.5 0 010 1h-9a.5.5 0 01-.5-.5zM3 6a.5.5 0 01.5-.5h9a.5.5 0 010 1h-9A.5.5 0 013 6zm0 2.5a.5.5 0 01.5-.5h5a.5.5 0 010 1h-5a.5.5 0 01-.5-.5z"/></svg><svg fill="rgba(51, 51, 51, 0.5)" class="cbi cbi-envelope" viewBox="0 0 16 16" width="16" height="16" id="contact" y="16" xmlns="http://www.w3.org/2000/svg"><path d="M0 4a2 2 0 012-2h12a2 2 0 012 2v8a2 2 0 01-2 2H2a2 2 0 01-2-2V4zm2-1a1 1 0 00-1 1v.217l7 4.2 7-4.2V4a1 1 0 00-1-1H2zm13 2.383l-4.708 2.825L15 11.105V5.383zm-.034 6.876l-5.64-3.471L8 9.583l-1.326-.795-5.64 3.47A1 1 0 002 13h12a1 1 0 00.966-.741zM1 11.105l4.708-2.897L1 5.383v5.722z"/></svg><svg fill="rgba(51, 51, 51, 0.5)" class="dbi dbi-house-door" viewBox="0 0 16 16" width="16" height="16" id="home" x="16" y="16" xmlns="http://www.w3.org/2000/svg"><path d="M8.354 1.146a.5.5 0 00-.708 0l-6 6A.5.5 0 001.5 7.5v7a.5.5 0 00.5.5h4.5a.5.5 0 00.5-.5v-4h2v4a.5.5 0 00.5.5H14a.5.5 0 00.5-.5v-7a.5.5 0 00-.146-.354L13 5.793V2.5a.5.5 0 00-.5-.5h-1a.5.5 0 00-.5.5v1.293L8.354 1.146zM2.5 14V7.707l5.5-5.5 5.5 5.5V14H10v-4a.5.5 0 00-.5-.5h-3a.5.5 0 00-.5.5v4H2.5z"/></svg><svg fill="rgba(51, 51, 51, 0.5)" class="ebi ebi-person" viewBox="0 0 16 16" width="16" height="16" id="person" x="32" xmlns="http://www.w3.org/2000/svg"><path d="M8 8a3 3 0 100-6 3 3 0 000 6zm2-3a2 2 0 11-4 0 2 2 0 014 0zm4 8c0 1-1 1-1 1H3s-1 0-1-1 1-4 6-4 6 3 6 4zm-1-.004c-.001-.246-.154-.986-.832-1.664C11.516 10.68 10.289 10 8 10c-2.29 0-3.516.68-4.168 1.332-.678.678-.83 1.418-.832 1.664h10z"/></svg><svg fill="rgba(51, 51, 51, 0.5)" class="fbi fbi-search" viewBox="0 0 16 16" width="16" height="16" id="search" x="32" y="16" xmlns="http://www.w3.org/2000/svg"><path d="M11.742 10.344a6.5 6.5 0 10-1.397 1.398h-.001c.03.04.062.078.098.115l3.85 3.85a1 1 0 001.415-1.414l-3.85-3.85a1.007 1.007 0 00-.115-.1zM12 6.5a5.5 5.5 0 11-11 0 5.5 5.5 0 0111 0z"/></svg><svg fill="rgba(51, 51, 51, 0.5)" class="gbi gbi-share" viewBox="0 0 16 16" width="16" height="16" id="share" y="32" xmlns="http://www.w3.org/2000/svg"><path d="M13.5 1a1.5 1.5 0 100 3 1.5 1.5 0 000-3zM11 2.5a2.5 2.5 0 11.603 1.628l-6.718 3.12a2.499 2.499 0 010 1.504l6.718 3.12a2.5 2.5 0 11-.488.876l-6.718-3.12a2.5 2.5 0 110-3.256l6.718-3.12A2.5 2.5 0 0111 2.5zm-8.5 4a1.5 1.5 0 100 3 1.5 1.5 0 000-3zm11 5.5a1.5 1.5 0 100 3 1.5 1.5 0 000-3z"/></svg><svg fill="rgba(51, 51, 51, 0.5)" class="hbi hbi-tags" viewBox="0 0 16 16" width="16" height="16" id="tag" x="16" y="32" xmlns="http://www.w3.org/2000/svg"><path d="M3 2v4.586l7 7L14.586 9l-7-7H3zM2 2a1 1 0 011-1h4.586a1 1 0 01.707.293l7 7a1 1 0 010 1.414l-4.586 4.586a1 1 0 01-1.414 0l-7-7A1 1 0 012 6.586V2z"/><path d="M5.5 5a.5.5 0 110-1 .5.5 0 010 1zm0 1a1.5 1.5 0 100-3 1.5 1.5 0 000 3zM1 7.086a1 1 0 00.293.707L8.75 15.25l-.043.043a1 1 0 01-1.414 0l-7-7A1 1 0 010 7.586V3a1 1 0 011-1v5.086z"/></svg></svg>