<svg xmlns="http://www.w3.org/2000/svg" version="1.1" xmlns:xlink="http://www.w3.org/1999/xlink" viewBox="0 0 700 700"
     style="overflow: hidden; display: block;">
    <defs></defs>
    <g id="two-0" transform="matrix(1 0 0 1 0 0)" opacity="1">
        <path transform="matrix(1 0 0 1 350 350)" id="two-38"
              d="M 332.147026 97.527166 C 329.044227 129.623356 305.06425 166.542178 274.330808 176.301705 C 217.569571 194.326463 157.25411 94.124504 103.177231 119.072872 C 84.847972 127.529075 90.748676 158.535188 80.283531 175.796412 C 67.87614 196.261179 57.129935 230.284726 33.207324 230.962013 C 5.65149 231.742163 2.869727 173.647432 -24.526846 170.587958 C -54.645511 167.224498 -71.01815 225.198301 -101.075407 221.324268 C -123.695092 218.408851 -143.015476 192.218038 -147.118043 169.783271 C -153.475997 135.014985 -87.228067 97.938525 -108.649138 69.82456 C -147.82874 18.403511 -268.725495 143.58039 -303.592667 89.14285 C -321.984246 60.428382 -260.149897 32.940104 -251.333981 0 C -245.024199 -23.5761 -269.03125 -56.603566 -251.868318 -73.955211 C -220.305608 -105.864965 -140.301694 -36.815089 -115.861737 -74.459817 C -92.15856 -110.969686 -202.812058 -167.614646 -169.09658 -195.147856 C -132.047632 -225.403292 -97.741596 -101.925887 -50.841322 -111.326966 C -33.550494 -114.792883 -38.573548 -149.341686 -22.522146 -156.64496 C -9.128291 -162.739069 7.673566 -144.612722 21.51165 -149.616814 C 67.704507 -166.320955 71.716054 -273.051693 119.498378 -261.66495 C 151.153176 -254.121469 124.478906 -192.203758 143.958588 -166.137068 C 157.623791 -147.851009 183.158312 -141.315716 203.365096 -130.694812 C 233.691009 -114.755184 281.166757 -117.410078 297.734634 -87.422777 C 311.807351 -61.951632 281.706362 -28.75344 286.185235 -0.000001 C 291.661259 35.154949 335.570544 62.113371 332.147026 97.527166 Z "
              fill="#fcf5f7" stroke="undefined" stroke-width="1" stroke-opacity="1" fill-opacity="1"
              visibility="visible" stroke-linecap="butt" stroke-linejoin="miter" stroke-miterlimit="4"></path>
    </g>
</svg>